<?xml version="1.0" encoding="UTF-8"?>
<svg id="Layer_2" data-name="Layer 2" xmlns="http://www.w3.org/2000/svg" viewBox="0 0 396 396">
  <defs>
    <style>
      .cls-1 {
        fill: #fff;
        fill-rule: evenodd;
        stroke-width: 0px;
      }
    </style>
  </defs>
  <g id="Layer_1-2" data-name="Layer 1">
    <path class="cls-1" d="M218.4,67.9L228.6,2.3c-10.1-1.6-20.4-2.3-30.6-2.3h-.2v133.6h.2c5.6,0,11.2.7,16.6,2.2l17.3-65.1c-4.4-1.2-8.9-2.1-13.4-2.8h-.1ZM165.8,142.3l-33.3-57.3h0c-3.9,2.3-7.7,4.8-11.4,7.4l-39.7-54.4c8.4-6.1,17.3-11.6,26.4-16.3l30.2,59c6.1-3.1,12.5-5.8,19-7.9l-20.6-63c9.8-3.2,20-5.7,30.2-7.3l10.6,66.5c-4.5.7-8.9,1.7-13.3,2.9l17.2,64c-5.4,1.5-10.6,3.6-15.5,6.4h.2ZM21.5,108.3l60,30.6c-3.1,6.1-5.7,12.4-7.8,18.9l-64.1-20.7c3.2-9.8,7.2-19.5,11.9-28.8ZM311,132.4l-57.3,33.3c2.8,4.9,5,10.1,6.4,15.5l64-17.2c1.2,4.4,2.2,8.8,2.9,13.3l66.5-10.6c-1.6-10.2-4.1-20.4-7.3-30.2l-63,20.6c-2.1-6.5-4.8-12.9-7.9-19l59-30.3c-4.7-9.2-10.2-18.1-16.3-26.4l-54.4,39.7c2.7,3.7,5.1,7.5,7.4,11.4h0v-.1ZM258.9,9.5c9.8,3.2,19.5,7.2,28.8,11.9l-30.5,60.1c-6.1-3.1-12.4-5.7-18.9-7.8l20.7-64.1-.1-.1ZM263.7,83.8l-33.6,58.4c4.9,2.8,9.4,6.2,13.4,10.2l94.4-94.7c-7.3-7.3-15.3-14.1-23.6-20.1l-38.9,53.7c-3.7-2.7-7.6-5.2-11.5-7.5h-.2ZM142.2,165.9l-58.4-33.7h0c2.3-4,4.8-7.8,7.5-11.5l-53.6-38.9c6.1-8.4,12.8-16.3,20.1-23.6l94.6,94.4c-4,4-7.4,8.5-10.2,13.4v-.1ZM70.7,164.1l65.1,17.3h0c-1.4,5.4-2.2,11-2.2,16.6H0c0-10.3.8-20.6,2.4-30.7l65.5,10.2c.7-4.5,1.6-9,2.8-13.4h0ZM314.5,257.1l60,30.6c4.7-9.2,8.7-18.9,11.9-28.8l-64.1-20.7c-2.1,6.5-4.7,12.8-7.8,18.9h0ZM230.2,253.7l33.3,57.3h0c3.9-2.3,7.7-4.7,11.4-7.4l39.7,54.4c-8.4,6.1-17.3,11.6-26.4,16.3l-30.2-59c-6.1,3.1-12.5,5.8-19,7.9l20.6,63c-9.8,3.2-20,5.7-30.2,7.3l-10.6-66.6c4.5-.7,8.9-1.7,13.3-2.9l-17.2-64c5.4-1.5,10.6-3.6,15.5-6.4l-.2.1ZM85,263.6l57.3-33.3c-2.8-4.9-5-10.1-6.4-15.5l-64,17.2c-1.2-4.4-2.2-8.8-2.9-13.3L2.5,229.4c1.6,10.2,4.1,20.4,7.3,30.2l63-20.6c2.1,6.5,4.8,12.9,7.9,19l-59,30.3c4.7,9.2,10.2,18.1,16.3,26.4l54.4-39.7c-2.7-3.7-5.1-7.5-7.4-11.4h0ZM108.4,374.6c9.2,4.7,18.9,8.7,28.8,11.9l20.7-64.1c-6.5-2.1-12.8-4.7-18.9-7.8l-30.5,60.1-.1-.1ZM132.3,312.2l33.6-58.4c-4.9-2.8-9.4-6.2-13.4-10.2l-94.3,94.7c7.3,7.3,15.3,14.1,23.6,20.1l38.9-53.7c3.7,2.7,7.5,5.2,11.5,7.5h.1ZM253.8,230.1l58.4,33.7h0c-2.3,4-4.8,7.8-7.5,11.5l53.6,38.9c-6.1,8.4-12.8,16.3-20.1,23.6l-94.6-94.4c4-4,7.4-8.5,10.2-13.4v.1ZM181.4,260.2l-17.3,65.1c4.4,1.2,8.9,2.1,13.4,2.8l-10.2,65.5c10.1,1.6,20.4,2.4,30.6,2.4h.2v-133.6h-.2c-5.6,0-11.2-.7-16.6-2.1l.1-.1ZM260.2,214.6c1.4-5.4,2.1-10.9,2.2-16.6h133.6c0,10.3-.8,20.6-2.4,30.7l-65.5-10.2c-.7,4.5-1.6,9-2.8,13.4l-65.1-17.3h0Z"/>
  </g>
</svg>