<?xml version="1.0" encoding="UTF-8"?>
<svg id="Layer_2" data-name="Layer 2" xmlns="http://www.w3.org/2000/svg" viewBox="0 0 653.67 523.05">
  <defs>
    <style>
      .cls-1 {
        fill: #fff;
        stroke-width: 0px;
      }
    </style>
  </defs>
  <g id="Layer_1-2" data-name="Layer 1">
    <g>
      <path class="cls-1" d="M650.32,197.1L540.62,12.2c-4.5-7.6-12.8-12.2-21.8-12.2H142.32c-8.7,0-16.8,4.4-21.4,11.6L3.72,196.9c-6.1,9.6-4.6,22.1,3.8,30.1l301.5,289c9.8,9.4,25.5,9.4,35.3,0l301.9-289.4c8.1-7.8,9.8-19.9,4.1-29.5ZM495.32,248.5c-.4,18.9-56.9,34.7-132.3,38.6v88.3h-71.2v-88.3c-75.3-3.8-131.8-19.6-132.3-38.6v-39.5c.4-18.9,56.9-34.7,132.3-38.6v-36h-107.3v-51.9h285.7v51.9h-107.2v36c75.3,3.8,131.8,19.6,132.3,38.6v39.5Z"/>
      <path class="cls-1" d="M363.02,236.1c-11.5.6-23.4.9-35.6.9s-24.1-.3-35.6-.9v-37.7c-64,3.3-114.5,15.2-128.4,30.3,16.4,17.8,83.6,31.2,164,31.2s147.6-13.4,164-31.2c-13.9-15.1-64.4-27-128.4-30.3v37.7Z"/>
    </g>
  </g>
</svg>